# xmcd
#
# Track frame offsets:
#	150
#	13670
#	25712
#	39540
#	53565
#	65867
#	78467
#	90280
#	102875
#	115097
#	129495
#	143532
#	156150
#	171825
#	185762
#	199060
#	215612
#	236577
#	257135
#
# Disc length: 3606 seconds
#
# Revision: 2
# Processed by: cddbd v1.4PL0 Copyright (c) Steve Scherf et al.
# Submitted via: audiograbber 1.81.03
#
DISCID=010e1413
DTITLE=Various Artist - Indigo 5th Anniversary Box [CD2)
DYEAR=1900
DGENRE=Blues
TTITLE0=Roy Brown - Good Rockin' Tonight
TTITLE1=T-Bone Walker - Bobby Sox Blues
TTITLE2=Buddy John Johnson and his Orchestra - Fine Brown Frame
TTITLE3=Dinah Washington - My Lovin' Papa
TTITLE4=Louis Jordan - Choo Choo Ch-Boogie
TTITLE5=Eddie Cleanhead Vinson - Old Maid Blues
TTITLE6=Paul Williams Sextet - Waxie Maxie
TTITLE7=Bullmore Jackson - I Want A Bowlegged Woman
TTITLE8=Julia Lee - King Size Papa
TTITLE9=Joe Liggins and his Honeydrippers - Got A Right To Cry
TTITLE10=Lonnie Johnson - Tomorrow Night
TTITLE11=Sonney Boy Williamson - Shake The Boogie
TTITLE12=Camille Howard and Roy Milton and his Solid Senders - Thrill Me
TTITLE13=John Lee Hooker and The Groundhogs - Mai Lee
TTITLE14=Lightnin' Slim - I Love You Baby
TTITLE15=Lowell Fulson - Do You Love Me
TTITLE16=Honeyboy Edwards - Bad Whiskey and Cocaine
TTITLE17=Jimmy Witherspoon - Think
TTITLE18=Otis Grand and The Dance Kings - Love at First Sight
EXTD=
EXTT0=
EXTT1=
EXTT2=
EXTT3=
EXTT4=
EXTT5=
EXTT6=
EXTT7=
EXTT8=
EXTT9=
EXTT10=
EXTT11=
EXTT12=
EXTT13=
EXTT14=
EXTT15=
EXTT16=
EXTT17=
EXTT18=
PLAYORDER=
